<svg xmlns="http://www.w3.org/2000/svg" viewBox="0 0 800 800"><rect width="800" height="800" fill="#1C1A18"/><g id="icon" transform="translate(62.500,111.438) scale(3.37500)"><path d="M 20.00,42.00 20.67,45.98 21.33,49.84 22.00,53.57 22.67,57.18 23.33,60.68 24.00,64.05 24.67,67.31 25.33,70.46 26.00,73.50 26.67,76.43 27.33,79.25 28.00,81.97 28.67,84.59 29.33,87.11 30.00,89.53 30.67,91.85 31.33,94.08 32.00,96.22 32.67,98.27 33.33,100.24 34.00,102.12 34.67,103.91 35.33,105.62 36.00,107.26 36.67,108.82 37.33,110.30 38.00,111.71 38.67,113.05 39.33,114.32 40.00,115.52 40.67,116.66 41.33,117.73 42.00,118.75 42.67,119.70 43.33,120.60 44.00,121.44 44.67,122.23 45.33,122.97 46.00,123.65 46.67,124.29 47.33,124.89 48.00,125.44 48.67,125.95 49.33,126.41 50.00,126.84 50.67,127.24 51.33,127.59 52.00,127.92 52.67,128.21 53.33,128.47 54.00,128.71 54.67,128.92 55.33,129.10 56.00,129.27 56.67,129.41 57.33,129.53 58.00,129.63 58.67,129.72 59.33,129.79 60.00,129.84 60.67,129.89 61.33,129.93 62.00,129.95 62.67,129.97 63.33,129.99 64.00,129.99 64.67,130.00 65.33,130.00 66.00,130.00 66.67,130.00 67.33,130.00 68.00,130.00 68.67,130.00 69.33,130.00 70.00,130.00 70.67,130.00 71.33,130.00 72.00,130.00 72.67,130.00 73.33,130.00 74.00,130.00 74.67,130.00 75.33,130.00 76.00,130.00 76.67,130.00 77.33,130.00 78.00,130.00 78.67,130.00 79.33,130.00 80.00,130.00 80.67,130.00 81.33,130.00 82.00,130.00 82.67,130.00 83.33,130.00 84.00,130.00 84.67,130.00 85.33,130.00 86.00,130.00 86.67,130.00 87.33,130.00 88.00,130.00 88.67,130.00 89.33,130.00 90.00,130.00 90.67,130.00 91.33,130.00 92.00,130.00 92.67,130.00 93.33,130.00 94.00,130.00 94.67,130.00 95.33,130.00 96.00,130.00 96.67,130.00 97.33,130.00 98.00,130.00 98.67,130.00 99.33,130.00 100.00,130.00 100.67,130.00 101.33,130.00 102.00,130.00 102.67,130.00 103.33,130.00 104.00,130.00 104.67,130.00 105.33,130.00 106.00,130.00 106.67,130.00 107.33,130.00 108.00,130.00 108.67,130.00 109.33,130.00 110.00,130.00 110.67,130.00 111.33,130.00 112.00,130.00 112.67,130.00 113.33,130.00 114.00,130.00 114.67,130.00 115.33,130.00 116.00,130.00 116.67,130.00 117.33,130.00 118.00,130.00 118.67,130.00 119.33,130.00 120.00,130.00 120.67,130.00 121.33,130.00 122.00,130.00 122.67,130.00 123.33,130.00 124.00,130.00 124.67,130.00 125.33,130.00 126.00,130.00 126.67,130.00 127.33,130.00 128.00,130.00 128.67,130.00 129.33,130.00 130.00,130.00 130.67,130.00 131.33,130.00 132.00,130.00 132.67,130.00 133.33,130.00 134.00,130.00 134.67,130.00 135.33,130.00 136.00,129.99 136.67,129.99 137.33,129.97 138.00,129.95 138.67,129.93 139.33,129.89 140.00,129.84 140.67,129.79 141.33,129.72 142.00,129.63 142.67,129.53 143.33,129.41 144.00,129.27 144.67,129.10 145.33,128.92 146.00,128.71 146.67,128.47 147.33,128.21 148.00,127.92 148.67,127.59 149.33,127.24 150.00,126.84 150.67,126.41 151.33,125.95 152.00,125.44 152.67,124.89 153.33,124.29 154.00,123.65 154.67,122.97 155.33,122.23 156.00,121.44 156.67,120.60 157.33,119.70 158.00,118.75 158.67,117.73 159.33,116.66 160.00,115.52 160.67,114.32 161.33,113.05 162.00,111.71 162.67,110.30 163.33,108.82 164.00,107.26 164.67,105.62 165.33,103.91 166.00,102.12 166.67,100.24 167.33,98.27 168.00,96.22 168.67,94.08 169.33,91.85 170.00,89.53 170.67,87.11 171.33,84.59 172.00,81.97 172.67,79.25 173.33,76.43 174.00,73.50 174.67,70.46 175.33,67.31 176.00,64.05 176.67,60.68 177.33,57.18 178.00,53.57 178.67,49.84 179.33,45.98 180.00,42.00 L 180.00,45.00 179.33,49.21 178.67,53.29 178.00,57.25 177.33,61.08 176.67,64.79 176.00,68.37 175.33,71.84 174.67,75.20 174.00,78.44 173.33,81.56 172.67,84.58 172.00,87.49 171.33,90.30 170.67,93.00 170.00,95.61 169.33,98.11 168.67,100.51 168.00,102.83 167.33,105.05 166.67,107.17 166.00,109.21 165.33,111.17 164.67,113.04 164.00,114.82 163.33,116.53 162.67,118.16 162.00,119.71 161.33,121.19 160.67,122.60 160.00,123.93 159.33,125.20 158.67,126.40 158.00,127.53 157.33,128.61 156.67,129.62 156.00,130.58 155.33,131.47 154.67,132.32 154.00,133.11 153.33,133.85 152.67,134.54 152.00,135.18 151.33,135.78 150.67,136.33 150.00,136.84 149.33,137.32 148.67,137.75 148.00,138.15 147.33,138.51 146.67,138.84 146.00,139.14 145.33,139.41 144.67,139.65 144.00,139.86 143.33,140.05 142.67,140.22 142.00,140.37 141.33,140.49 140.67,140.60 140.00,140.69 139.33,140.77 138.67,140.83 138.00,140.88 137.33,140.92 136.67,140.95 136.00,140.97 135.33,140.99 134.67,141.00 134.00,141.00 133.33,141.00 132.67,141.00 132.00,141.00 131.33,141.00 130.67,141.00 130.00,141.00 129.33,141.00 128.67,141.00 128.00,141.00 127.33,141.00 126.67,141.00 126.00,141.00 125.33,141.00 124.67,141.00 124.00,141.00 123.33,141.00 122.67,141.00 122.00,141.00 121.33,141.00 120.67,141.00 120.00,141.00 119.33,141.00 118.67,141.00 118.00,141.00 117.33,141.00 116.67,141.00 116.00,141.00 115.33,141.00 114.67,141.00 114.00,141.00 113.33,141.00 112.67,141.00 112.00,141.00 111.33,141.00 110.67,141.00 110.00,141.00 109.33,141.00 108.67,141.00 108.00,141.00 107.33,141.00 106.67,141.00 106.00,141.00 105.33,141.00 104.67,141.00 104.00,141.00 103.33,141.00 102.67,141.00 102.00,141.00 101.33,141.00 100.67,141.00 100.00,141.00 99.33,141.00 98.67,141.00 98.00,141.00 97.33,141.00 96.67,141.00 96.00,141.00 95.33,141.00 94.67,141.00 94.00,141.00 93.33,141.00 92.67,141.00 92.00,141.00 91.33,141.00 90.67,141.00 90.00,141.00 89.33,141.00 88.67,141.00 88.00,141.00 87.33,141.00 86.67,141.00 86.00,141.00 85.33,141.00 84.67,141.00 84.00,141.00 83.33,141.00 82.67,141.00 82.00,141.00 81.33,141.00 80.67,141.00 80.00,141.00 79.33,141.00 78.67,141.00 78.00,141.00 77.33,141.00 76.67,141.00 76.00,141.00 75.33,141.00 74.67,141.00 74.00,141.00 73.33,141.00 72.67,141.00 72.00,141.00 71.33,141.00 70.67,141.00 70.00,141.00 69.33,141.00 68.67,141.00 68.00,141.00 67.33,141.00 66.67,141.00 66.00,141.00 65.33,141.00 64.67,140.99 64.00,140.97 63.33,140.95 62.67,140.92 62.00,140.88 61.33,140.83 60.67,140.77 60.00,140.69 59.33,140.60 58.67,140.49 58.00,140.37 57.33,140.22 56.67,140.05 56.00,139.86 55.33,139.65 54.67,139.41 54.00,139.14 53.33,138.84 52.67,138.51 52.00,138.15 51.33,137.75 50.67,137.32 50.00,136.84 49.33,136.33 48.67,135.78 48.00,135.18 47.33,134.54 46.67,133.85 46.00,133.11 45.33,132.32 44.67,131.47 44.00,130.58 43.33,129.62 42.67,128.61 42.00,127.53 41.33,126.40 40.67,125.20 40.00,123.93 39.33,122.60 38.67,121.19 38.00,119.71 37.33,118.16 36.67,116.53 36.00,114.82 35.33,113.04 34.67,111.17 34.00,109.21 33.33,107.17 32.67,105.05 32.00,102.83 31.33,100.51 30.67,98.11 30.00,95.61 29.33,93.00 28.67,90.30 28.00,87.49 27.33,84.58 26.67,81.56 26.00,78.44 25.33,75.20 24.67,71.84 24.00,68.37 23.33,64.79 22.67,61.08 22.00,57.25 21.33,53.29 20.67,49.21 20.00,45.00 Z" fill="#B08D3F"/><path d="M 38.00,36.00 38.52,39.08 39.03,42.06 39.55,44.94 40.07,47.73 40.58,50.43 41.10,53.04 41.62,55.56 42.13,57.99 42.65,60.34 43.17,62.61 43.68,64.79 44.20,66.89 44.72,68.91 45.23,70.86 45.75,72.73 46.27,74.52 46.78,76.25 47.30,77.90 47.82,79.48 48.33,81.00 48.85,82.45 49.37,83.84 49.88,85.16 50.40,86.43 50.92,87.63 51.43,88.78 51.95,89.87 52.47,90.90 52.98,91.88 53.50,92.81 54.02,93.69 54.53,94.52 55.05,95.30 55.57,96.04 56.08,96.74 56.60,97.39 57.12,98.00 57.63,98.57 58.15,99.10 58.67,99.59 59.18,100.05 59.70,100.48 60.22,100.87 60.73,101.23 61.25,101.56 61.77,101.86 62.28,102.14 62.80,102.39 63.32,102.62 63.83,102.82 64.35,103.00 64.87,103.16 65.38,103.31 65.90,103.43 66.42,103.54 66.93,103.63 67.45,103.71 67.97,103.78 68.48,103.84 69.00,103.88 69.52,103.92 70.03,103.94 70.55,103.96 71.07,103.98 71.58,103.99 72.10,103.99 72.62,104.00 73.13,104.00 73.65,104.00 74.17,104.00 74.68,104.00 75.20,104.00 75.72,104.00 76.23,104.00 76.75,104.00 77.27,104.00 77.78,104.00 78.30,104.00 78.82,104.00 79.33,104.00 79.85,104.00 80.37,104.00 80.88,104.00 81.40,104.00 81.92,104.00 82.43,104.00 82.95,104.00 83.47,104.00 83.98,104.00 84.50,104.00 85.02,104.00 85.53,104.00 86.05,104.00 86.57,104.00 87.08,104.00 87.60,104.00 88.12,104.00 88.63,104.00 89.15,104.00 89.67,104.00 90.18,104.00 90.70,104.00 91.22,104.00 91.73,104.00 92.25,104.00 92.77,104.00 93.28,104.00 93.80,104.00 94.32,104.00 94.83,104.00 95.35,104.00 95.87,104.00 96.38,104.00 96.90,104.00 97.42,104.00 97.93,104.00 98.45,104.00 98.97,104.00 99.48,104.00 100.00,104.00 100.52,104.00 101.03,104.00 101.55,104.00 102.07,104.00 102.58,104.00 103.10,104.00 103.62,104.00 104.13,104.00 104.65,104.00 105.17,104.00 105.68,104.00 106.20,104.00 106.72,104.00 107.23,104.00 107.75,104.00 108.27,104.00 108.78,104.00 109.30,104.00 109.82,104.00 110.33,104.00 110.85,104.00 111.37,104.00 111.88,104.00 112.40,104.00 112.92,104.00 113.43,104.00 113.95,104.00 114.47,104.00 114.98,104.00 115.50,104.00 116.02,104.00 116.53,104.00 117.05,104.00 117.57,104.00 118.08,104.00 118.60,104.00 119.12,104.00 119.63,104.00 120.15,104.00 120.67,104.00 121.18,104.00 121.70,104.00 122.22,104.00 122.73,104.00 123.25,104.00 123.77,104.00 124.28,104.00 124.80,104.00 125.32,104.00 125.83,104.00 126.35,104.00 126.87,104.00 127.38,104.00 127.90,103.99 128.42,103.99 128.93,103.98 129.45,103.96 129.97,103.94 130.48,103.92 131.00,103.88 131.52,103.84 132.03,103.78 132.55,103.71 133.07,103.63 133.58,103.54 134.10,103.43 134.62,103.31 135.13,103.16 135.65,103.00 136.17,102.82 136.68,102.62 137.20,102.39 137.72,102.14 138.23,101.86 138.75,101.56 139.27,101.23 139.78,100.87 140.30,100.48 140.82,100.05 141.33,99.59 141.85,99.10 142.37,98.57 142.88,98.00 143.40,97.39 143.92,96.74 144.43,96.04 144.95,95.30 145.47,94.52 145.98,93.69 146.50,92.81 147.02,91.88 147.53,90.90 148.05,89.87 148.57,88.78 149.08,87.63 149.60,86.43 150.12,85.16 150.63,83.84 151.15,82.45 151.67,81.00 152.18,79.48 152.70,77.90 153.22,76.25 153.73,74.52 154.25,72.73 154.77,70.86 155.28,68.91 155.80,66.89 156.32,64.79 156.83,62.61 157.35,60.34 157.87,57.99 158.38,55.56 158.90,53.04 159.42,50.43 159.93,47.73 160.45,44.94 160.97,42.06 161.48,39.08 162.00,36.00 L 162.00,38.80 161.48,42.07 160.97,45.24 160.45,48.31 159.93,51.28 159.42,54.16 158.90,56.95 158.38,59.64 157.87,62.25 157.35,64.76 156.83,67.19 156.32,69.54 155.80,71.80 155.28,73.98 154.77,76.08 154.25,78.10 153.73,80.05 153.22,81.92 152.70,83.72 152.18,85.44 151.67,87.10 151.15,88.69 150.63,90.21 150.12,91.66 149.60,93.05 149.08,94.38 148.57,95.65 148.05,96.86 147.53,98.01 147.02,99.10 146.50,100.14 145.98,101.13 145.47,102.07 144.95,102.95 144.43,103.79 143.92,104.58 143.40,105.32 142.88,106.03 142.37,106.68 141.85,107.30 141.33,107.88 140.82,108.42 140.30,108.92 139.78,109.39 139.27,109.82 138.75,110.22 138.23,110.59 137.72,110.93 137.20,111.25 136.68,111.53 136.17,111.79 135.65,112.02 135.13,112.24 134.62,112.43 134.10,112.60 133.58,112.75 133.07,112.88 132.55,112.99 132.03,113.09 131.52,113.18 131.00,113.25 130.48,113.31 129.97,113.36 129.45,113.40 128.93,113.44 128.42,113.46 127.90,113.48 127.38,113.49 126.87,113.50 126.35,113.50 125.83,113.50 125.32,113.50 124.80,113.50 124.28,113.50 123.77,113.50 123.25,113.50 122.73,113.50 122.22,113.50 121.70,113.50 121.18,113.50 120.67,113.50 120.15,113.50 119.63,113.50 119.12,113.50 118.60,113.50 118.08,113.50 117.57,113.50 117.05,113.50 116.53,113.50 116.02,113.50 115.50,113.50 114.98,113.50 114.47,113.50 113.95,113.50 113.43,113.50 112.92,113.50 112.40,113.50 111.88,113.50 111.37,113.50 110.85,113.50 110.33,113.50 109.82,113.50 109.30,113.50 108.78,113.50 108.27,113.50 107.75,113.50 107.23,113.50 106.72,113.50 106.20,113.50 105.68,113.50 105.17,113.50 104.65,113.50 104.13,113.50 103.62,113.50 103.10,113.50 102.58,113.50 102.07,113.50 101.55,113.50 101.03,113.50 100.52,113.50 100.00,113.50 99.48,113.50 98.97,113.50 98.45,113.50 97.93,113.50 97.42,113.50 96.90,113.50 96.38,113.50 95.87,113.50 95.35,113.50 94.83,113.50 94.32,113.50 93.80,113.50 93.28,113.50 92.77,113.50 92.25,113.50 91.73,113.50 91.22,113.50 90.70,113.50 90.18,113.50 89.67,113.50 89.15,113.50 88.63,113.50 88.12,113.50 87.60,113.50 87.08,113.50 86.57,113.50 86.05,113.50 85.53,113.50 85.02,113.50 84.50,113.50 83.98,113.50 83.47,113.50 82.95,113.50 82.43,113.50 81.92,113.50 81.40,113.50 80.88,113.50 80.37,113.50 79.85,113.50 79.33,113.50 78.82,113.50 78.30,113.50 77.78,113.50 77.27,113.50 76.75,113.50 76.23,113.50 75.72,113.50 75.20,113.50 74.68,113.50 74.17,113.50 73.65,113.50 73.13,113.50 72.62,113.49 72.10,113.48 71.58,113.46 71.07,113.44 70.55,113.40 70.03,113.36 69.52,113.31 69.00,113.25 68.48,113.18 67.97,113.09 67.45,112.99 66.93,112.88 66.42,112.75 65.90,112.60 65.38,112.43 64.87,112.24 64.35,112.02 63.83,111.79 63.32,111.53 62.80,111.25 62.28,110.93 61.77,110.59 61.25,110.22 60.73,109.82 60.22,109.39 59.70,108.92 59.18,108.42 58.67,107.88 58.15,107.30 57.63,106.68 57.12,106.03 56.60,105.32 56.08,104.58 55.57,103.79 55.05,102.95 54.53,102.07 54.02,101.13 53.50,100.14 52.98,99.10 52.47,98.01 51.95,96.86 51.43,95.65 50.92,94.38 50.40,93.05 49.88,91.66 49.37,90.21 48.85,88.69 48.33,87.10 47.82,85.44 47.30,83.72 46.78,81.92 46.27,80.05 45.75,78.10 45.23,76.08 44.72,73.98 44.20,71.80 43.68,69.54 43.17,67.19 42.65,64.76 42.13,62.25 41.62,59.64 41.10,56.95 40.58,54.16 40.07,51.28 39.55,48.31 39.03,45.24 38.52,42.07 38.00,38.80 Z" fill="#7A2E2A"/><path d="M 56.00,30.00 56.37,32.17 56.73,34.28 57.10,36.31 57.47,38.28 57.83,40.19 58.20,42.03 58.57,43.81 58.93,45.52 59.30,47.18 59.67,48.78 60.03,50.32 60.40,51.80 60.77,53.23 61.13,54.60 61.50,55.92 61.87,57.19 62.23,58.41 62.60,59.58 62.97,60.69 63.33,61.77 63.70,62.79 64.07,63.77 64.43,64.70 64.80,65.60 65.17,66.45 65.53,67.25 65.90,68.02 66.27,68.75 66.63,69.45 67.00,70.10 67.37,70.72 67.73,71.31 68.10,71.86 68.47,72.38 68.83,72.87 69.20,73.33 69.57,73.76 69.93,74.16 70.30,74.54 70.67,74.89 71.03,75.21 71.40,75.51 71.77,75.79 72.13,76.04 72.50,76.28 72.87,76.49 73.23,76.69 73.60,76.86 73.97,77.02 74.33,77.17 74.70,77.30 75.07,77.41 75.43,77.51 75.80,77.60 76.17,77.68 76.53,77.74 76.90,77.80 77.27,77.84 77.63,77.88 78.00,77.92 78.37,77.94 78.73,77.96 79.10,77.97 79.47,77.98 79.83,77.99 80.20,78.00 80.57,78.00 80.93,78.00 81.30,78.00 81.67,78.00 82.03,78.00 82.40,78.00 82.77,78.00 83.13,78.00 83.50,78.00 83.87,78.00 84.23,78.00 84.60,78.00 84.97,78.00 85.33,78.00 85.70,78.00 86.07,78.00 86.43,78.00 86.80,78.00 87.17,78.00 87.53,78.00 87.90,78.00 88.27,78.00 88.63,78.00 89.00,78.00 89.37,78.00 89.73,78.00 90.10,78.00 90.47,78.00 90.83,78.00 91.20,78.00 91.57,78.00 91.93,78.00 92.30,78.00 92.67,78.00 93.03,78.00 93.40,78.00 93.77,78.00 94.13,78.00 94.50,78.00 94.87,78.00 95.23,78.00 95.60,78.00 95.97,78.00 96.33,78.00 96.70,78.00 97.07,78.00 97.43,78.00 97.80,78.00 98.17,78.00 98.53,78.00 98.90,78.00 99.27,78.00 99.63,78.00 100.00,78.00 100.37,78.00 100.73,78.00 101.10,78.00 101.47,78.00 101.83,78.00 102.20,78.00 102.57,78.00 102.93,78.00 103.30,78.00 103.67,78.00 104.03,78.00 104.40,78.00 104.77,78.00 105.13,78.00 105.50,78.00 105.87,78.00 106.23,78.00 106.60,78.00 106.97,78.00 107.33,78.00 107.70,78.00 108.07,78.00 108.43,78.00 108.80,78.00 109.17,78.00 109.53,78.00 109.90,78.00 110.27,78.00 110.63,78.00 111.00,78.00 111.37,78.00 111.73,78.00 112.10,78.00 112.47,78.00 112.83,78.00 113.20,78.00 113.57,78.00 113.93,78.00 114.30,78.00 114.67,78.00 115.03,78.00 115.40,78.00 115.77,78.00 116.13,78.00 116.50,78.00 116.87,78.00 117.23,78.00 117.60,78.00 117.97,78.00 118.33,78.00 118.70,78.00 119.07,78.00 119.43,78.00 119.80,78.00 120.17,77.99 120.53,77.98 120.90,77.97 121.27,77.96 121.63,77.94 122.00,77.92 122.37,77.88 122.73,77.84 123.10,77.80 123.47,77.74 123.83,77.68 124.20,77.60 124.57,77.51 124.93,77.41 125.30,77.30 125.67,77.17 126.03,77.02 126.40,76.86 126.77,76.69 127.13,76.49 127.50,76.28 127.87,76.04 128.23,75.79 128.60,75.51 128.97,75.21 129.33,74.89 129.70,74.54 130.07,74.16 130.43,73.76 130.80,73.33 131.17,72.87 131.53,72.38 131.90,71.86 132.27,71.31 132.63,70.72 133.00,70.10 133.37,69.45 133.73,68.75 134.10,68.02 134.47,67.25 134.83,66.45 135.20,65.60 135.57,64.70 135.93,63.77 136.30,62.79 136.67,61.77 137.03,60.69 137.40,59.58 137.77,58.41 138.13,57.19 138.50,55.92 138.87,54.60 139.23,53.23 139.60,51.80 139.97,50.32 140.33,48.78 140.70,47.18 141.07,45.52 141.43,43.81 141.80,42.03 142.17,40.19 142.53,38.28 142.90,36.31 143.27,34.28 143.63,32.17 144.00,30.00 L 144.00,32.50 143.63,34.83 143.27,37.09 142.90,39.28 142.53,41.40 142.17,43.45 141.80,45.44 141.43,47.36 141.07,49.22 140.70,51.01 140.33,52.75 139.97,54.42 139.60,56.04 139.23,57.59 138.87,59.09 138.50,60.54 138.13,61.93 137.77,63.27 137.40,64.55 137.03,65.79 136.67,66.97 136.30,68.11 135.93,69.20 135.57,70.24 135.20,71.23 134.83,72.19 134.47,73.10 134.10,73.96 133.73,74.79 133.37,75.57 133.00,76.32 132.63,77.03 132.27,77.70 131.90,78.34 131.53,78.94 131.17,79.51 130.80,80.05 130.43,80.56 130.07,81.03 129.70,81.48 129.33,81.89 128.97,82.28 128.60,82.65 128.23,82.99 127.87,83.30 127.50,83.59 127.13,83.86 126.77,84.11 126.40,84.33 126.03,84.54 125.67,84.73 125.30,84.90 124.93,85.06 124.57,85.20 124.20,85.32 123.83,85.43 123.47,85.53 123.10,85.62 122.73,85.69 122.37,85.76 122.00,85.81 121.63,85.86 121.27,85.89 120.90,85.92 120.53,85.95 120.17,85.97 119.80,85.98 119.43,85.99 119.07,86.00 118.70,86.00 118.33,86.00 117.97,86.00 117.60,86.00 117.23,86.00 116.87,86.00 116.50,86.00 116.13,86.00 115.77,86.00 115.40,86.00 115.03,86.00 114.67,86.00 114.30,86.00 113.93,86.00 113.57,86.00 113.20,86.00 112.83,86.00 112.47,86.00 112.10,86.00 111.73,86.00 111.37,86.00 111.00,86.00 110.63,86.00 110.27,86.00 109.90,86.00 109.53,86.00 109.17,86.00 108.80,86.00 108.43,86.00 108.07,86.00 107.70,86.00 107.33,86.00 106.97,86.00 106.60,86.00 106.23,86.00 105.87,86.00 105.50,86.00 105.13,86.00 104.77,86.00 104.40,86.00 104.03,86.00 103.67,86.00 103.30,86.00 102.93,86.00 102.57,86.00 102.20,86.00 101.83,86.00 101.47,86.00 101.10,86.00 100.73,86.00 100.37,86.00 100.00,86.00 99.63,86.00 99.27,86.00 98.90,86.00 98.53,86.00 98.17,86.00 97.80,86.00 97.43,86.00 97.07,86.00 96.70,86.00 96.33,86.00 95.97,86.00 95.60,86.00 95.23,86.00 94.87,86.00 94.50,86.00 94.13,86.00 93.77,86.00 93.40,86.00 93.03,86.00 92.67,86.00 92.30,86.00 91.93,86.00 91.57,86.00 91.20,86.00 90.83,86.00 90.47,86.00 90.10,86.00 89.73,86.00 89.37,86.00 89.00,86.00 88.63,86.00 88.27,86.00 87.90,86.00 87.53,86.00 87.17,86.00 86.80,86.00 86.43,86.00 86.07,86.00 85.70,86.00 85.33,86.00 84.97,86.00 84.60,86.00 84.23,86.00 83.87,86.00 83.50,86.00 83.13,86.00 82.77,86.00 82.40,86.00 82.03,86.00 81.67,86.00 81.30,86.00 80.93,86.00 80.57,85.99 80.20,85.98 79.83,85.97 79.47,85.95 79.10,85.92 78.73,85.89 78.37,85.86 78.00,85.81 77.63,85.76 77.27,85.69 76.90,85.62 76.53,85.53 76.17,85.43 75.80,85.32 75.43,85.20 75.07,85.06 74.70,84.90 74.33,84.73 73.97,84.54 73.60,84.33 73.23,84.11 72.87,83.86 72.50,83.59 72.13,83.30 71.77,82.99 71.40,82.65 71.03,82.28 70.67,81.89 70.30,81.48 69.93,81.03 69.57,80.56 69.20,80.05 68.83,79.51 68.47,78.94 68.10,78.34 67.73,77.70 67.37,77.03 67.00,76.32 66.63,75.57 66.27,74.79 65.90,73.96 65.53,73.10 65.17,72.19 64.80,71.23 64.43,70.24 64.07,69.20 63.70,68.11 63.33,66.97 62.97,65.79 62.60,64.55 62.23,63.27 61.87,61.93 61.50,60.54 61.13,59.09 60.77,57.59 60.40,56.04 60.03,54.42 59.67,52.75 59.30,51.01 58.93,49.22 58.57,47.36 58.20,45.44 57.83,43.45 57.47,41.40 57.10,39.28 56.73,37.09 56.37,34.83 56.00,32.50 Z" fill="#B08D3F"/></g></svg>